<svg xmlns="http://www.w3.org/2000/svg" viewBox="0 0 200 200" width="200" height="200">
  <defs>
    <linearGradient id="bg" x1="0" y1="0" x2="1" y2="1">
      <stop offset="0%" stop-color="#4f6df5"/>
      <stop offset="100%" stop-color="#7b2ff7"/>
    </linearGradient>
  </defs>
  <circle cx="100" cy="100" r="100" fill="url(#bg)"/>
  <!-- cuello -->
  <rect x="86" y="118" width="28" height="26" rx="10" fill="#e8b98d"/>
  <!-- cabeza -->
  <circle cx="100" cy="86" r="38" fill="#f2c9a0"/>
  <!-- pelo -->
  <path d="M62 84 q0 -44 38 -44 q38 0 38 44 q0 6 -4 10 q2 -26 -12 -30 q6 8 2 14 q-8 -16 -30 -14 q-20 2 -26 20 q-2 -6 -6 0 z" fill="#3b2b20"/>
  <!-- orejas -->
  <circle cx="62" cy="90" r="7" fill="#f2c9a0"/>
  <circle cx="138" cy="90" r="7" fill="#f2c9a0"/>
  <!-- lentes -->
  <g stroke="#232936" stroke-width="3.5" fill="none">
    <circle cx="84" cy="90" r="12"/>
    <circle cx="116" cy="90" r="12"/>
    <line x1="96" y1="90" x2="104" y2="90"/>
    <line x1="72" y1="88" x2="64" y2="86"/>
    <line x1="128" y1="88" x2="136" y2="86"/>
  </g>
  <!-- ojos -->
  <circle cx="84" cy="90" r="3.5" fill="#232936"/>
  <circle cx="116" cy="90" r="3.5" fill="#232936"/>
  <!-- cejas -->
  <path d="M76 76 q8 -5 16 -1" stroke="#3b2b20" stroke-width="3" fill="none" stroke-linecap="round"/>
  <path d="M108 75 q8 -4 16 1" stroke="#3b2b20" stroke-width="3" fill="none" stroke-linecap="round"/>
  <!-- sonrisa -->
  <path d="M88 108 q12 10 24 0" stroke="#b5836a" stroke-width="3.5" fill="none" stroke-linecap="round"/>
  <!-- remera -->
  <path d="M40 200 q0 -46 42 -52 q8 10 18 10 q10 0 18 -10 q42 6 42 52 z" fill="#232936"/>
  <!-- detalle remera: símbolo código -->
  <text x="100" y="182" font-family="monospace" font-size="20" fill="#7b9cff" text-anchor="middle" font-weight="bold">&lt;/&gt;</text>
</svg>
